<svg xmlns="http://www.w3.org/2000/svg" xmlns:xlink="http://www.w3.org/1999/xlink" xml:space="preserve" version="1.1" style="shape-rendering:geometricPrecision;text-rendering:geometricPrecision;image-rendering:optimizeQuality;" viewBox="0 0 333.33 416.66249999999997" x="0px" y="0px" fill-rule="evenodd" clip-rule="evenodd"><defs><style type="text/css">
   
    .fil0 {fill:black;fill-rule:nonzero}
   
  </style></defs><g><path class="fil0" d="M202.64 166.67l0 100.45c0,6.3 -1.68,12.2 -4.78,17.29 -3.09,5.06 -7.58,9.24 -13.22,12.14 -5.63,2.89 -11.63,4.11 -17.51,3.68 -5.95,-0.44 -11.73,-2.52 -16.86,-6.2l-4.81 -3.44c-0.14,-0.09 -0.28,-0.2 -0.42,-0.3l-80.56 -57.73 -28.04 0c-9.12,0 -17.4,-3.72 -23.39,-9.71 -5.99,-6 -9.71,-14.27 -9.71,-23.39l0 -65.57c0,-9.12 3.72,-17.4 9.71,-23.39 6,-5.99 14.27,-9.71 23.39,-9.71l28.04 0 80.56 -57.73c0.14,-0.1 0.28,-0.2 0.42,-0.3l4.81 -3.44c5.13,-3.68 10.91,-5.76 16.86,-6.2 5.88,-0.43 11.88,0.78 17.51,3.68 5.65,2.9 10.14,7.08 13.22,12.14 3.11,5.09 4.78,10.99 4.78,17.29l0 100.45zm12.76 51.88c-2.48,-3.4 -1.72,-8.17 1.68,-10.65 3.4,-2.48 8.17,-1.73 10.65,1.67l17.24 23.61c0.39,0.54 0.85,0.95 1.35,1.22 0.49,0.27 1.09,0.43 1.78,0.47 0.72,0.04 1.34,-0.04 1.85,-0.24 0.51,-0.2 1.01,-0.57 1.5,-1.08l1.55 -1.65c2.05,-2.18 4.43,-3.8 7.08,-4.84 2.65,-1.04 5.51,-1.47 8.48,-1.26 2.94,0.21 5.7,1.04 8.21,2.45 2.51,1.42 4.65,3.35 6.35,5.77l17.98 25.56c2.43,3.45 1.6,8.22 -1.85,10.65 -3.45,2.43 -8.22,1.6 -10.65,-1.85l-17.99 -25.56c-0.42,-0.59 -0.87,-1.03 -1.33,-1.29 -0.47,-0.26 -1.08,-0.43 -1.81,-0.48 -0.7,-0.05 -1.31,0.04 -1.85,0.24 -0.53,0.21 -1.04,0.57 -1.52,1.07l-1.55 1.65c-2.01,2.14 -4.37,3.74 -7,4.79 -2.64,1.05 -5.45,1.5 -8.37,1.31 -2.95,-0.18 -5.7,-0.97 -8.18,-2.32 -2.47,-1.35 -4.61,-3.25 -6.37,-5.65l-17.24 -23.61zm12.32 -94.79c-2.48,3.4 -7.24,4.15 -10.65,1.67 -3.4,-2.48 -4.15,-7.24 -1.68,-10.65l17.24 -23.61c1.76,-2.4 3.9,-4.3 6.37,-5.65 2.48,-1.35 5.22,-2.14 8.18,-2.32 2.92,-0.18 5.73,0.27 8.37,1.31 2.64,1.05 5,2.65 7,4.79l1.55 1.65c0.47,0.5 0.98,0.87 1.52,1.07 0.53,0.2 1.15,0.29 1.85,0.24 0.73,-0.05 1.34,-0.21 1.81,-0.48 0.46,-0.26 0.91,-0.7 1.33,-1.29l17.99 -25.56c2.43,-3.45 7.2,-4.28 10.65,-1.85 3.45,2.43 4.28,7.2 1.85,10.65l-17.98 25.56c-1.7,2.42 -3.84,4.35 -6.35,5.77 -2.51,1.41 -5.27,2.24 -8.21,2.45 -2.98,0.21 -5.83,-0.22 -8.48,-1.26 -2.65,-1.04 -5.03,-2.66 -7.08,-4.84l-1.55 -1.65c-0.49,-0.52 -0.99,-0.88 -1.5,-1.08 -0.5,-0.2 -1.13,-0.28 -1.85,-0.24 -0.69,0.04 -1.29,0.2 -1.78,0.47 -0.5,0.27 -0.95,0.69 -1.35,1.22l-17.24 23.61zm-3.32 51.59c-3.92,1.57 -8.36,-0.33 -9.93,-4.24 -1.57,-3.92 0.33,-8.36 4.24,-9.93l26.89 -10.81c3.31,-1.33 6.76,-1.74 10.09,-1.25l0.33 0.06c3.22,0.53 6.29,1.89 8.97,4.02l19.52 15.55c0.57,0.46 1.17,0.76 1.76,0.88 0.58,0.12 1.24,0.09 1.96,-0.11l32.13 -8.64c4.08,-1.09 8.27,1.33 9.36,5.41 1.09,4.08 -1.33,8.27 -5.41,9.36l-32.13 8.64c-3.03,0.81 -6.07,0.9 -9.02,0.29 -2.94,-0.61 -5.7,-1.91 -8.16,-3.87l-19.52 -15.55c-0.6,-0.48 -1.23,-0.78 -1.85,-0.89l-0.15 -0.02c-0.7,-0.1 -1.44,-0.01 -2.19,0.3l-26.88 10.81zm-149.82 -62.99l0 108.61 67.45 48.34 0 -205.28 -67.45 48.34zm-15.31 104.88l0 -101.15 -22.83 0c-4.89,0 -9.34,2 -12.57,5.22 -3.22,3.22 -5.22,7.67 -5.22,12.57l0 65.57c0,4.89 2,9.34 5.22,12.57 3.22,3.22 7.67,5.22 12.57,5.22l22.83 0zm98.08 -164.19l0 227.23 1.81 1.3c2.82,2.02 5.91,3.15 9.03,3.38 3.18,0.24 6.43,-0.43 9.5,-2 3.06,-1.57 5.48,-3.81 7.12,-6.51 1.63,-2.67 2.51,-5.85 2.51,-9.33l0 -200.91c0,-3.48 -0.88,-6.67 -2.51,-9.33 -1.65,-2.7 -4.07,-4.94 -7.12,-6.51 -3.07,-1.57 -6.32,-2.24 -9.5,-2 -3.11,0.23 -6.21,1.36 -9.03,3.38l-1.81 1.3z"/></g><text x="0" y="348.33" fill="#000000" font-size="5px" font-weight="bold" font-family="'Helvetica Neue', Helvetica, Arial-Unicode, Arial, Sans-serif">Created by MOCROIS</text><text x="0" y="353.33" fill="#000000" font-size="5px" font-weight="bold" font-family="'Helvetica Neue', Helvetica, Arial-Unicode, Arial, Sans-serif">from the Noun Project</text></svg>